<svg xmlns="http://www.w3.org/2000/svg" xmlns:xlink="http://www.w3.org/1999/xlink" xmlns:lucid="lucid" width="1000" height="1032"><g transform="translate(-700 -100)" lucid:page-tab-id="0_0"><path d="M1000 120c22.1 0 40 17.9 40 40s-17.9 40-40 40h-80c-22.1 0-40-17.9-40-40s17.9-40 40-40z" stroke="#a3be8c" stroke-width="2" fill="#a3be8c"/><use xlink:href="#a" transform="matrix(1,0,0,1,885,125) translate(51.574074074074076 39.65277777777778)"/><path d="M955.2 283.6a8 8 0 0 1 9.6 0l70.4 52.8a4.5 4.5 0 0 1 0 7.2l-70.4 52.8a8 8 0 0 1-9.6 0l-70.4-52.8a4.5 4.5 0 0 1 0-7.2z" stroke="#74c0c8" stroke-width="2" fill="#74c0c8"/><use xlink:href="#b" transform="matrix(1,0,0,1,885,285) translate(57.751913580246914 34.96527777777778)"/><use xlink:href="#c" transform="matrix(1,0,0,1,885,285) translate(81.2087037037037 34.96527777777778)"/><use xlink:href="#d" transform="matrix(1,0,0,1,885,285) translate(18.2766049382716 61.63194444444445)"/><path d="M960 202.5v57.88" stroke="#b8525c" stroke-width="3" fill="none"/><path d="M961.5 202.54h-3V201h3z" stroke="#b8525c" stroke-width=".05" fill="#b8525c"/><path d="M960 276.14l-4.63-14.26h9.26z" stroke="#b8525c" stroke-width="3" fill="#b8525c"/><path d="M961.5 478.38h-3v-18.7h3zm0-40.05h-3V400.5h3z" stroke="#b8525c" stroke-width=".05" fill="#b8525c"/><path d="M958.85 398.93l1.15.07 1.15-.07.35-.07v1.68h-3v-1.68z" fill="#b8525c"/><path d="M958.85 398.9l1.15.08 1.15-.08.38-.07v1.74h-3.05v-1.74zm-.33 1.62h2.96v-1.63l-.32.05-1.16.08-1.16-.08-.32-.06z" stroke="#b8525c" stroke-width=".05" fill="#b8525c"/><path d="M960 494.15l-4.63-14.27h9.26z" fill="#b8525c"/><path d="M960 499l-6.7-20.62h13.4zm-2.57-17.62l2.57 7.9 2.57-7.9z" stroke="#b8525c" stroke-width=".05" fill="#b8525c"/><use xlink:href="#e" transform="matrix(1,0,0,1,951.604938271605,438.3343851785398) translate(0.005000000000000782 14.222222222222223)"/><path d="M1107.2 341.5h-67.7v-3h67.7zm72.18 0h-48.58v-3h48.58z" stroke="#b8525c" stroke-width=".05" fill="#b8525c"/><path d="M1039.54 341.5h-1.77l.14-.5.1-1-.1-1-.13-.5h1.77z" fill="#b8525c"/><path d="M1039.57 341.52h-1.83l.14-.5.1-1.02-.1-1-.14-.52h1.83zm-1.76-3l.13.46.1 1.02-.1 1.02-.13.46h1.72v-2.96z" stroke="#b8525c" stroke-width=".05" fill="#b8525c"/><path d="M1195.15 340l-14.27 4.63v-9.26z" fill="#b8525c"/><path d="M1200 340l-20.62 6.7v-13.4zm-17.62 2.57l7.9-2.57-7.9-2.57z" stroke="#b8525c" stroke-width=".05" fill="#b8525c"/><use xlink:href="#f" transform="matrix(1,0,0,1,1107.1996673313288,329.3333333333333) translate(0.005000000000000782 14.222222222222223)"/><path d="M1141.15 341.5v48.4a.1.1 0 0 0 .1.1.1.1 0 0 1 .08.1V434a6 6 0 0 0 6 6h31.05M1141.15 341.54V340" stroke="#b8525c" stroke-width="3" fill="none"/><path d="M1194.15 440l-14.27 4.63v-9.26z" stroke="#b8525c" stroke-width="3" fill="#b8525c"/><path d="M1141.15 338.5v-48.4a.1.1 0 0 1 .1-.1.1.1 0 0 0 .08-.1V246a6 6 0 0 1 6-6h31.05M1141.15 338.46V340" stroke="#b8525c" stroke-width="3" fill="none"/><path d="M1194.15 240l-14.27 4.63v-9.26z" stroke="#b8525c" stroke-width="3" fill="#b8525c"/><path d="M880 506a6 6 0 0 1 6-6h148a6 6 0 0 1 6 6v68a6 6 0 0 1-6 6H886a6 6 0 0 1-6-6z" stroke="#ebcb81" stroke-width="2" fill="#ebcb81"/><use xlink:href="#g" transform="matrix(1,0,0,1,892,512) translate(12.506172839506178 21.27777777777778)"/><use xlink:href="#h" transform="matrix(1,0,0,1,892,512) translate(70.46913580246914 21.27777777777778)"/><use xlink:href="#i" transform="matrix(1,0,0,1,892,512) translate(92.62962962962963 21.27777777777778)"/><use xlink:href="#j" transform="matrix(1,0,0,1,892,512) translate(8.154320987654323 47.94444444444444)"/><use xlink:href="#k" transform="matrix(1,0,0,1,892,512) translate(56.302469135802475 47.94444444444444)"/><path d="M1200 206a6 6 0 0 1 6-6h148a6 6 0 0 1 6 6v68a6 6 0 0 1-6 6h-148a6 6 0 0 1-6-6z" stroke="#ebcb81" stroke-width="2" fill="#ebcb81"/><use xlink:href="#l" transform="matrix(1,0,0,1,1212,212) translate(40.0679012345679 31.77777777777778)"/><path d="M1200 306a6 6 0 0 1 6-6h148a6 6 0 0 1 6 6v68a6 6 0 0 1-6 6h-148a6 6 0 0 1-6-6z" stroke="#ebcb81" stroke-width="2" fill="#ebcb81"/><use xlink:href="#m" transform="matrix(1,0,0,1,1212,312) translate(21.117283950617285 31.77777777777778)"/><path d="M1200 406a6 6 0 0 1 6-6h148a6 6 0 0 1 6 6v74c-26.72-13.36-43.36-13.36-53.44-13.36-16 0-37.28 13.36-53.28 13.36-9.92 0-26.72 0-53.28-13.36z" stroke="#ebcb81" stroke-width="2" fill="#ebcb81"/><use xlink:href="#n" transform="matrix(1,0,0,1,1205,405) translate(21.975308641975303 32.02777777777778)"/><path d="M795.2 663.6a8 8 0 0 1 9.6 0l70.4 52.8a4.5 4.5 0 0 1 0 7.2l-70.4 52.8a8 8 0 0 1-9.6 0l-70.4-52.8a4.5 4.5 0 0 1 0-7.2z" stroke="#74c0c8" stroke-width="2" fill="#74c0c8"/><use xlink:href="#o" transform="matrix(1,0,0,1,725,665) translate(32.50499999999999 59.02777777777778)"/><path d="M1060 686a6 6 0 0 1 6-6h148a6 6 0 0 1 6 6v68a6 6 0 0 1-6 6h-148a6 6 0 0 1-6-6z" stroke="#ebcb81" stroke-width="2" fill="#ebcb81"/><use xlink:href="#p" transform="matrix(1,0,0,1,1072,692) translate(19.975308641975303 21.27777777777778)"/><use xlink:href="#q" transform="matrix(1,0,0,1,1072,692) translate(29.172839506172842 47.94444444444444)"/><path d="M960 582.5V615a6 6 0 0 1-6 6H806a6 6 0 0 0-6 6v13.38" stroke="#b8525c" stroke-width="3" fill="none"/><path d="M961.5 582.54h-3V581h3z" stroke="#b8525c" stroke-width=".05" fill="#b8525c"/><path d="M800 656.14l-4.63-14.26h9.26z" stroke="#b8525c" stroke-width="3" fill="#b8525c"/><path d="M960 582.5V614a6 6 0 0 0 6 6h168a6 6 0 0 1 6 6v32.38" stroke="#b8525c" stroke-width="3" fill="none"/><path d="M961.5 582.54h-3V581h3z" stroke="#b8525c" stroke-width=".05" fill="#b8525c"/><path d="M1140 674.15l-4.63-14.27h9.27z" stroke="#b8525c" stroke-width="3" fill="#b8525c"/><path d="M1290 686a6 6 0 0 1 6-6h148a6 6 0 0 1 6 6v68a6 6 0 0 1-6 6h-148a6 6 0 0 1-6-6z" stroke="#ebcb81" stroke-width="2" fill="#ebcb81"/><use xlink:href="#r" transform="matrix(1,0,0,1,1302,692) translate(33.49382716049383 21.27777777777778)"/><use xlink:href="#s" transform="matrix(1,0,0,1,1302,692) translate(26.086419753086417 47.94444444444444)"/><path d="M1520 686a6 6 0 0 1 6-6h148a6 6 0 0 1 6 6v68a6 6 0 0 1-6 6h-148a6 6 0 0 1-6-6z" stroke="#ebcb81" stroke-width="2" fill="#ebcb81"/><use xlink:href="#t" transform="matrix(1,0,0,1,1532,692) translate(2.660493827160508 31.77777777777778)"/><use xlink:href="#u" transform="matrix(1,0,0,1,1532,692) translate(77.84567901234568 31.77777777777778)"/><path d="M1222.5 720h45.88" stroke="#b8525c" stroke-width="3" fill="none"/><path d="M1222.54 721.5H1221v-3h1.54z" stroke="#b8525c" stroke-width=".05" fill="#b8525c"/><path d="M1284.15 720l-14.27 4.63v-9.26z" stroke="#b8525c" stroke-width="3" fill="#b8525c"/><path d="M1452.5 720h45.88" stroke="#b8525c" stroke-width="3" fill="none"/><path d="M1452.54 721.5H1451v-3h1.54z" stroke="#b8525c" stroke-width=".05" fill="#b8525c"/><path d="M1514.15 720l-14.27 4.63v-9.26z" stroke="#b8525c" stroke-width="3" fill="#b8525c"/><path d="M1520 506a6 6 0 0 1 6-6h148a6 6 0 0 1 6 6v68a6 6 0 0 1-6 6h-148a6 6 0 0 1-6-6z" stroke="#ebcb81" stroke-width="2" fill="#ebcb81"/><use xlink:href="#v" transform="matrix(1,0,0,1,1532,512) translate(0.16049382716050786 31.77777777777778)"/><use xlink:href="#w" transform="matrix(1,0,0,1,1532,512) translate(40.83950617283952 31.77777777777778)"/><use xlink:href="#x" transform="matrix(1,0,0,1,1532,512) translate(65.53086419753087 31.77777777777778)"/><path d="M1600 677.5v-75.88" stroke="#b8525c" stroke-width="3" fill="none"/><path d="M1601.5 679h-3v-1.54h3z" stroke="#b8525c" stroke-width=".05" fill="#b8525c"/><path d="M1600 585.85l4.63 14.27h-9.27z" stroke="#b8525c" stroke-width="3" fill="#b8525c"/><path d="M1517.5 540h-455.88" stroke="#b8525c" stroke-width="3" fill="none"/><path d="M1519 541.5h-1.54v-3h1.54z" stroke="#b8525c" stroke-width=".05" fill="#b8525c"/><path d="M1045.85 540l14.27-4.63v9.26z" stroke="#b8525c" stroke-width="3" fill="#b8525c"/><path d="M720 866a6 6 0 0 1 6-6h148a6 6 0 0 1 6 6v68a6 6 0 0 1-6 6H726a6 6 0 0 1-6-6z" stroke="#ebcb81" stroke-width="2" fill="#ebcb81"/><use xlink:href="#y" transform="matrix(1,0,0,1,732,872) translate(45.22222222222222 31.77777777777778)"/><use xlink:href="#z" transform="matrix(1,0,0,1,732,872) translate(79.72839506172839 31.77777777777778)"/><path d="M801.5 838.38h-3v-8.7h3zm0-30.05h-3V780.5h3z" stroke="#b8525c" stroke-width=".05" fill="#b8525c"/><path d="M798.85 778.93l1.15.07 1.15-.07.35-.07v1.68h-3v-1.68z" fill="#b8525c"/><path d="M798.85 778.9l1.15.08 1.15-.08.38-.07v1.74h-3.05v-1.74zm-.33 1.62h2.96v-1.63l-.32.05-1.16.08-1.16-.08-.32-.06z" stroke="#b8525c" stroke-width=".05" fill="#b8525c"/><path d="M800 854.15l-4.63-14.27h9.26z" fill="#b8525c"/><path d="M800 859l-6.7-20.62h13.4zm-2.57-17.62l2.57 7.9 2.57-7.9z" stroke="#b8525c" stroke-width=".05" fill="#b8525c"/><use xlink:href="#e" transform="matrix(1,0,0,1,791.604938271605,808.33438517854) translate(0.005000000000000782 14.222222222222223)"/><path d="M1060 846a6 6 0 0 1 6-6h148a6 6 0 0 1 6 6v68a6 6 0 0 1-6 6h-148a6 6 0 0 1-6-6z" stroke="#ebcb81" stroke-width="2" fill="#ebcb81"/><use xlink:href="#A" transform="matrix(1,0,0,1,1072,852) translate(32.29012345679013 31.77777777777778)"/><use xlink:href="#z" transform="matrix(1,0,0,1,1072,852) translate(92.6604938271605 31.77777777777778)"/><path d="M1060 1026a6 6 0 0 1 6-6h148a6 6 0 0 1 6 6v68a6 6 0 0 1-6 6h-148a6 6 0 0 1-6-6z" stroke="#ebcb81" stroke-width="2" fill="#ebcb81"/><use xlink:href="#B" transform="matrix(1,0,0,1,1072,1032) translate(15.006172839506178 31.77777777777778)"/><use xlink:href="#z" transform="matrix(1,0,0,1,1072,1032) translate(109.94444444444444 31.77777777777778)"/><path d="M970 873.94l.06.76.17.7.27.64.37.6.45.54.54.46.6.37.65.27.7.17.76.06h63.82v3h-63.94l-1.1-.1-1.16-.26-1.08-.45-1-.63-.9-.76-.77-.9-.6-1-.47-1.08-.27-1.15-.1-1.1v-63.4h3zm-6.32-155.35l1.14.26 1.1.45 1 .63.9.76.75.9.62 1 .44 1.08.27 1.15.1 1.1v63.4h-3v-63.27l-.06-.76-.16-.7-.27-.64-.36-.6-.46-.54-.54-.46-.6-.37-.65-.27-.7-.17-.76-.06H879.5v-3h83.06z" stroke="#b8525c" stroke-width=".05" fill="#b8525c"/><path d="M879.54 721.5h-1.77l.14-.5.1-1-.1-1-.13-.5h1.77z" fill="#b8525c"/><path d="M879.57 721.52h-1.83l.14-.5.1-1.02-.1-1-.14-.52h1.83zm-1.77-3l.13.46.1 1.02-.1 1.02-.13.46h1.72v-2.96z" stroke="#b8525c" stroke-width=".05" fill="#b8525c"/><path d="M1054.15 880l-14.27 4.63v-9.26z" fill="#b8525c"/><path d="M1059 880l-20.62 6.7v-13.4zm-17.62 2.57l7.9-2.57-7.9-2.57z" stroke="#b8525c" stroke-width=".05" fill="#b8525c"/><use xlink:href="#f" transform="matrix(1,0,0,1,956.6996923313284,789.3333333333334) translate(0.005000000000000782 14.222222222222223)"/><path d="M968.5 875.4V1054a6 6 0 0 0 6 6h63.88M968.5 875.43v-1.54" stroke="#b8525c" stroke-width="3" fill="none"/><path d="M1054.15 1060l-14.27 4.63v-9.27z" stroke="#b8525c" stroke-width="3" fill="#b8525c"/><path d="M1290 805.75a6 6 0 0 1 6-6h148a6 6 0 0 1 6 6v28a6 6 0 0 1-6 6h-148a6 6 0 0 1-6-6z" stroke="#ebcb81" stroke-width="2" fill="#ebcb81"/><use xlink:href="#C" transform="matrix(1,0,0,1,1302,811.7489822440344) translate(42.72222222222223 17.77777777777778)"/><path d="M1290 866a6 6 0 0 1 6-6h148a6 6 0 0 1 6 6v28a6 6 0 0 1-6 6h-148a6 6 0 0 1-6-6z" stroke="#ebcb81" stroke-width="2" fill="#ebcb81"/><use xlink:href="#D" transform="matrix(1,0,0,1,1302,872) translate(45.191358024691354 17.77777777777778)"/><path d="M1290 926a6 6 0 0 1 6-6h148a6 6 0 0 1 6 6v28a6 6 0 0 1-6 6h-148a6 6 0 0 1-6-6z" stroke="#ebcb81" stroke-width="2" fill="#ebcb81"/><use xlink:href="#E" transform="matrix(1,0,0,1,1302,932) translate(15.561728395061728 17.77777777777778)"/><path d="M1280 1014a6 6 0 0 1 6-6h178a6 6 0 0 1 6 6v92a6 6 0 0 1-6 6h-178a6 6 0 0 1-6-6z" stroke="#ebcb81" stroke-width="2" fill="#ebcb81"/><g><use xlink:href="#F" transform="matrix(1,0,0,1,1292,1020) translate(45.22222222222222 30.27777777777778)"/><use xlink:href="#G" transform="matrix(1,0,0,1,1292,1020) translate(94.91358024691358 30.27777777777778)"/><use xlink:href="#H" transform="matrix(1,0,0,1,1292,1020) translate(13.925925925925924 56.94444444444445)"/><use xlink:href="#I" transform="matrix(1,0,0,1,1292,1020) translate(111.39506172839506 56.94444444444445)"/></g><path d="M1222.5 1060h35.88" stroke="#b8525c" stroke-width="3" fill="none"/><path d="M1222.54 1061.5H1221v-3h1.54z" stroke="#b8525c" stroke-width=".05" fill="#b8525c"/><path d="M1274.15 1060l-14.27 4.63v-9.27z" stroke="#b8525c" stroke-width="3" fill="#b8525c"/><path d="M1222.5 880h26.5a6 6 0 0 0 6-6v-48.25a6 6 0 0 1 6-6h7.38" stroke="#b8525c" stroke-width="3" fill="none"/><path d="M1222.54 881.5H1221v-3h1.54z" stroke="#b8525c" stroke-width=".05" fill="#b8525c"/><path d="M1284.15 819.75l-14.27 4.63v-9.27z" stroke="#b8525c" stroke-width="3" fill="#b8525c"/><path d="M1222.5 880h45.88" stroke="#b8525c" stroke-width="3" fill="none"/><path d="M1222.54 881.5H1221v-3h1.54z" stroke="#b8525c" stroke-width=".05" fill="#b8525c"/><path d="M1284.15 880l-14.27 4.63v-9.26z" stroke="#b8525c" stroke-width="3" fill="#b8525c"/><path d="M1222.5 880h26.5a6 6 0 0 1 6 6v48a6 6 0 0 0 6 6h7.38" stroke="#b8525c" stroke-width="3" fill="none"/><path d="M1222.54 881.5H1221v-3h1.54z" stroke="#b8525c" stroke-width=".05" fill="#b8525c"/><path d="M1284.15 940l-14.27 4.63v-9.26z" stroke="#b8525c" stroke-width="3" fill="#b8525c"/><defs><path d="M185-189c-5-48-123-54-124 2 14 75 158 14 163 119 3 78-121 87-175 55-17-10-28-26-33-46l33-7c5 56 141 63 141-1 0-78-155-14-162-118-5-82 145-84 179-34 5 7 8 16 11 25" id="J"/><path d="M59-47c-2 24 18 29 38 22v24C64 9 27 4 27-40v-127H5v-23h24l9-43h21v43h35v23H59v120" id="K"/><path d="M141-36C126-15 110 5 73 4 37 3 15-17 15-53c-1-64 63-63 125-63 3-35-9-54-41-54-24 1-41 7-42 31l-33-3c5-37 33-52 76-52 45 0 72 20 72 64v82c-1 20 7 32 28 27v20c-31 9-61-2-59-35zM48-53c0 20 12 33 32 33 41-3 63-29 60-74-43 2-92-5-92 41" id="L"/><path d="M114-163C36-179 61-72 57 0H25l-1-190h30c1 12-1 29 2 39 6-27 23-49 58-41v29" id="M"/><g id="a"><use transform="matrix(0.06172839506172839,0,0,0.06172839506172839,0,0)" xlink:href="#J"/><use transform="matrix(0.06172839506172839,0,0,0.06172839506172839,14.814814814814813,0)" xlink:href="#K"/><use transform="matrix(0.06172839506172839,0,0,0.06172839506172839,20.98765432098765,0)" xlink:href="#L"/><use transform="matrix(0.06172839506172839,0,0,0.06172839506172839,33.33333333333333,0)" xlink:href="#M"/><use transform="matrix(0.06172839506172839,0,0,0.06172839506172839,40.679012345679006,0)" xlink:href="#K"/></g><path d="M33 0v-248h34V0H33" id="N"/><path d="M135-143c-3-34-86-38-87 0 15 53 115 12 119 90S17 21 10-45l28-5c4 36 97 45 98 0-10-56-113-15-118-90-4-57 82-63 122-42 12 7 21 19 24 35" id="O"/><g id="b"><use transform="matrix(0.06172839506172839,0,0,0.06172839506172839,0,0)" xlink:href="#N"/><use transform="matrix(0.06172839506172839,0,0,0.06172839506172839,6.172839506172839,0)" xlink:href="#O"/></g><path d="M24-231v-30h32v30H24zM24 0v-190h32V0H24" id="P"/><g id="c"><use transform="matrix(0.06172839506172839,0,0,0.06172839506172839,0,0)" xlink:href="#P"/><use transform="matrix(0.06172839506172839,0,0,0.06172839506172839,4.876543209876543,0)" xlink:href="#K"/></g><path d="M96-169c-40 0-48 33-48 73s9 75 48 75c24 0 41-14 43-38l32 2c-6 37-31 61-74 61-59 0-76-41-82-99-10-93 101-131 147-64 4 7 5 14 7 22l-32 3c-4-21-16-35-41-35" id="Q"/><path d="M100-194c62-1 85 37 85 99 1 63-27 99-86 99S16-35 15-95c0-66 28-99 85-99zM99-20c44 1 53-31 53-75 0-43-8-75-51-75s-53 32-53 75 10 74 51 75" id="R"/><path d="M117-194c89-4 53 116 60 194h-32v-121c0-31-8-49-39-48C34-167 62-67 57 0H25l-1-190h30c1 10-1 24 2 32 11-22 29-35 61-36" id="S"/><path d="M115-194c53 0 69 39 70 98 0 66-23 100-70 100C84 3 66-7 56-30L54 0H23l1-261h32v101c10-23 28-34 59-34zm-8 174c40 0 45-34 45-75 0-40-5-75-45-74-42 0-51 32-51 76 0 43 10 73 51 73" id="T"/><path d="M24 0v-261h32V0H24" id="U"/><path d="M100-194c63 0 86 42 84 106H49c0 40 14 67 53 68 26 1 43-12 49-29l28 8c-11 28-37 45-77 45C44 4 14-33 15-96c1-61 26-98 85-98zm52 81c6-60-76-77-97-28-3 7-6 17-6 28h103" id="V"/><path d="M103-251c84 0 111 97 45 133-19 10-37 24-39 52H78c0-63 77-55 77-114 0-30-21-42-52-43-32 0-53 17-56 46l-32-2c7-45 34-72 88-72zM77 0v-35h34V0H77" id="W"/><g id="d"><use transform="matrix(0.06172839506172839,0,0,0.06172839506172839,0,0)" xlink:href="#L"/><use transform="matrix(0.06172839506172839,0,0,0.06172839506172839,12.345679012345679,0)" xlink:href="#Q"/><use transform="matrix(0.06172839506172839,0,0,0.06172839506172839,23.45679012345679,0)" xlink:href="#K"/><use transform="matrix(0.06172839506172839,0,0,0.06172839506172839,29.62962962962963,0)" xlink:href="#P"/><use transform="matrix(0.06172839506172839,0,0,0.06172839506172839,34.50617283950617,0)" xlink:href="#R"/><use transform="matrix(0.06172839506172839,0,0,0.06172839506172839,46.85185185185185,0)" xlink:href="#S"/><use transform="matrix(0.06172839506172839,0,0,0.06172839506172839,59.197530864197525,0)" xlink:href="#L"/><use transform="matrix(0.06172839506172839,0,0,0.06172839506172839,71.5432098765432,0)" xlink:href="#T"/><use transform="matrix(0.06172839506172839,0,0,0.06172839506172839,83.88888888888889,0)" xlink:href="#U"/><use transform="matrix(0.06172839506172839,0,0,0.06172839506172839,88.76543209876543,0)" xlink:href="#V"/><use transform="matrix(0.06172839506172839,0,0,0.06172839506172839,101.11111111111111,0)" xlink:href="#W"/></g><path fill="#ced4db" d="M169-182c-1-43-94-46-97-3 18 66 151 10 154 114 3 95-165 93-204 36-6-8-10-19-12-30l50-8c3 46 112 56 116 5-17-69-150-10-154-114-4-87 153-88 188-35 5 8 8 18 10 28" id="X"/><path fill="#ced4db" d="M25 0v-190h50V0H25zm-5-208v-5l45-51h45v8l-60 48H20" id="Y"/><g id="e"><use transform="matrix(0.04938271604938272,0,0,0.04938271604938272,0,0)" xlink:href="#X"/><use transform="matrix(0.04938271604938272,0,0,0.04938271604938272,11.851851851851853,0)" xlink:href="#Y"/></g><path fill="#ced4db" d="M175 0L67-191c6 58 2 128 3 191H24v-248h59L193-55c-6-58-2-129-3-193h46V0h-61" id="Z"/><path fill="#ced4db" d="M110-194c64 0 96 36 96 99 0 64-35 99-97 99-61 0-95-36-95-99 0-62 34-99 96-99zm-1 164c35 0 45-28 45-65 0-40-10-65-43-65-34 0-45 26-45 65 0 36 10 65 43 65" id="aa"/><g id="f"><use transform="matrix(0.04938271604938272,0,0,0.04938271604938272,0,0)" xlink:href="#Z"/><use transform="matrix(0.04938271604938272,0,0,0.04938271604938272,12.790123456790125,0)" xlink:href="#aa"/></g><path d="M266 0h-40l-56-210L115 0H75L2-248h35L96-30l15-64 43-154h32l59 218 59-218h35" id="ab"/><path d="M106-169C34-169 62-67 57 0H25v-261h32l-1 103c12-21 28-36 61-36 89 0 53 116 60 194h-32v-121c2-32-8-49-39-48" id="ac"/><g id="g"><use transform="matrix(0.06172839506172839,0,0,0.06172839506172839,0,0)" xlink:href="#ab"/><use transform="matrix(0.06172839506172839,0,0,0.06172839506172839,20.925925925925924,0)" xlink:href="#ac"/><use transform="matrix(0.06172839506172839,0,0,0.06172839506172839,33.2716049382716,0)" xlink:href="#L"/><use transform="matrix(0.06172839506172839,0,0,0.06172839506172839,45.61728395061728,0)" xlink:href="#K"/></g><g id="h"><use transform="matrix(0.06172839506172839,0,0,0.06172839506172839,0,0)" xlink:href="#P"/><use transform="matrix(0.06172839506172839,0,0,0.06172839506172839,4.876543209876543,0)" xlink:href="#O"/></g><g id="i"><use transform="matrix(0.06172839506172839,0,0,0.06172839506172839,0,0)" xlink:href="#K"/><use transform="matrix(0.06172839506172839,0,0,0.06172839506172839,6.172839506172839,0)" xlink:href="#ac"/><use transform="matrix(0.06172839506172839,0,0,0.06172839506172839,18.51851851851852,0)" xlink:href="#V"/></g><path d="M141 0L90-78 38 0H4l68-98-65-92h35l48 74 47-74h35l-64 92 68 98h-35" id="ad"/><g id="j"><use transform="matrix(0.06172839506172839,0,0,0.06172839506172839,0,0)" xlink:href="#S"/><use transform="matrix(0.06172839506172839,0,0,0.06172839506172839,12.345679012345679,0)" xlink:href="#V"/><use transform="matrix(0.06172839506172839,0,0,0.06172839506172839,24.691358024691358,0)" xlink:href="#ad"/><use transform="matrix(0.06172839506172839,0,0,0.06172839506172839,35.80246913580247,0)" xlink:href="#K"/></g><g id="k"><use transform="matrix(0.06172839506172839,0,0,0.06172839506172839,0,0)" xlink:href="#L"/><use transform="matrix(0.06172839506172839,0,0,0.06172839506172839,12.345679012345679,0)" xlink:href="#Q"/><use transform="matrix(0.06172839506172839,0,0,0.06172839506172839,23.45679012345679,0)" xlink:href="#K"/><use transform="matrix(0.06172839506172839,0,0,0.06172839506172839,29.62962962962963,0)" xlink:href="#P"/><use transform="matrix(0.06172839506172839,0,0,0.06172839506172839,34.50617283950617,0)" xlink:href="#R"/><use transform="matrix(0.06172839506172839,0,0,0.06172839506172839,46.85185185185185,0)" xlink:href="#S"/><use transform="matrix(0.06172839506172839,0,0,0.06172839506172839,59.197530864197525,0)" xlink:href="#W"/></g><path d="M127-220V0H93v-220H8v-28h204v28h-85" id="ae"/><g id="l"><use transform="matrix(0.06172839506172839,0,0,0.06172839506172839,0,0)" xlink:href="#ae"/><use transform="matrix(0.06172839506172839,0,0,0.06172839506172839,12.716049382716047,0)" xlink:href="#M"/><use transform="matrix(0.06172839506172839,0,0,0.06172839506172839,20.061728395061728,0)" xlink:href="#L"/><use transform="matrix(0.06172839506172839,0,0,0.06172839506172839,32.407407407407405,0)" xlink:href="#O"/><use transform="matrix(0.06172839506172839,0,0,0.06172839506172839,43.51851851851852,0)" xlink:href="#ac"/></g><path d="M210-169c-67 3-38 105-44 169h-31v-121c0-29-5-50-35-48C34-165 62-65 56 0H25l-1-190h30c1 10-1 24 2 32 10-44 99-50 107 0 11-21 27-35 58-36 85-2 47 119 55 194h-31v-121c0-29-5-49-35-48" id="af"/><path d="M85-194c31 0 48 13 60 33l-1-100h32l1 261h-30c-2-10 0-23-3-31C134-8 116 4 85 4 32 4 16-35 15-94c0-66 23-100 70-100zm9 24c-40 0-46 34-46 75 0 40 6 74 45 74 42 0 51-32 51-76 0-42-9-74-50-73" id="ag"/><path d="M179-190L93 31C79 59 56 82 12 73V49c39 6 53-20 64-50L1-190h34L92-34l54-156h33" id="ah"/><g id="m"><use transform="matrix(0.06172839506172839,0,0,0.06172839506172839,0,0)" xlink:href="#J"/><use transform="matrix(0.06172839506172839,0,0,0.06172839506172839,14.814814814814813,0)" xlink:href="#R"/><use transform="matrix(0.06172839506172839,0,0,0.06172839506172839,27.160493827160494,0)" xlink:href="#af"/><use transform="matrix(0.06172839506172839,0,0,0.06172839506172839,45.61728395061728,0)" xlink:href="#V"/><use transform="matrix(0.06172839506172839,0,0,0.06172839506172839,57.962962962962955,0)" xlink:href="#ag"/><use transform="matrix(0.06172839506172839,0,0,0.06172839506172839,70.30864197530863,0)" xlink:href="#L"/><use transform="matrix(0.06172839506172839,0,0,0.06172839506172839,82.65432098765432,0)" xlink:href="#ah"/></g><path d="M233-177c-1 41-23 64-60 70L243 0h-38l-65-103H63V0H30v-248c88 3 205-21 203 71zM63-129c60-2 137 13 137-47 0-61-80-42-137-45v92" id="ai"/><path d="M84 4C-5 8 30-112 23-190h32v120c0 31 7 50 39 49 72-2 45-101 50-169h31l1 190h-30c-1-10 1-25-2-33-11 22-28 36-60 37" id="aj"/><g id="n"><use transform="matrix(0.06172839506172839,0,0,0.06172839506172839,0,0)" xlink:href="#ai"/><use transform="matrix(0.06172839506172839,0,0,0.06172839506172839,15.987654320987653,0)" xlink:href="#V"/><use transform="matrix(0.06172839506172839,0,0,0.06172839506172839,28.333333333333332,0)" xlink:href="#O"/><use transform="matrix(0.06172839506172839,0,0,0.06172839506172839,39.44444444444444,0)" xlink:href="#R"/><use transform="matrix(0.06172839506172839,0,0,0.06172839506172839,51.79012345679012,0)" xlink:href="#aj"/><use transform="matrix(0.06172839506172839,0,0,0.06172839506172839,64.1358024691358,0)" xlink:href="#M"/><use transform="matrix(0.06172839506172839,0,0,0.06172839506172839,71.48148148148148,0)" xlink:href="#Q"/><use transform="matrix(0.06172839506172839,0,0,0.06172839506172839,82.5925925925926,0)" xlink:href="#V"/><use transform="matrix(0.06172839506172839,0,0,0.06172839506172839,94.93827160493828,0)" xlink:href="#O"/></g><path d="M30-248c118-7 216 8 213 122C240-48 200 0 122 0H30v-248zM63-27c89 8 146-16 146-99s-60-101-146-95v194" id="ak"/><path d="M100-194c62-1 85 37 85 99 1 63-27 99-86 99S16-35 15-95c0-66 28-99 85-99zM99-20c44 1 53-31 53-75 0-43-8-75-51-75s-53 32-53 75 10 74 51 75zM76-211c8-23 27-35 38-54h36v5l-58 49H76" id="al"/><g id="o"><use transform="matrix(0.06172839506172839,0,0,0.06172839506172839,0,0)" xlink:href="#ak"/><use transform="matrix(0.06172839506172839,0,0,0.06172839506172839,15.987654320987653,0)" xlink:href="#V"/><use transform="matrix(0.06172839506172839,0,0,0.06172839506172839,28.333333333333332,0)" xlink:href="#Q"/><use transform="matrix(0.06172839506172839,0,0,0.06172839506172839,39.44444444444444,0)" xlink:href="#P"/><use transform="matrix(0.06172839506172839,0,0,0.06172839506172839,44.32098765432099,0)" xlink:href="#O"/><use transform="matrix(0.06172839506172839,0,0,0.06172839506172839,55.4320987654321,0)" xlink:href="#P"/><use transform="matrix(0.06172839506172839,0,0,0.06172839506172839,60.308641975308646,0)" xlink:href="#al"/><use transform="matrix(0.06172839506172839,0,0,0.06172839506172839,72.65432098765433,0)" xlink:href="#S"/></g><path d="M240 0l2-218c-23 76-54 145-80 218h-23L58-218 59 0H30v-248h44l77 211c21-75 51-140 76-211h43V0h-30" id="am"/><path d="M16-82v-28h88v28H16" id="an"/><path d="M115-194c55 1 70 41 70 98S169 2 115 4C84 4 66-9 55-30l1 105H24l-1-265h31l2 30c10-21 28-34 59-34zm-8 174c40 0 45-34 45-75s-6-73-45-74c-42 0-51 32-51 76 0 43 10 73 51 73" id="ao"/><g id="p"><use transform="matrix(0.06172839506172839,0,0,0.06172839506172839,0,0)" xlink:href="#am"/><use transform="matrix(0.06172839506172839,0,0,0.06172839506172839,18.456790123456788,0)" xlink:href="#aj"/><use transform="matrix(0.06172839506172839,0,0,0.06172839506172839,30.80246913580247,0)" xlink:href="#U"/><use transform="matrix(0.06172839506172839,0,0,0.06172839506172839,35.67901234567901,0)" xlink:href="#K"/><use transform="matrix(0.06172839506172839,0,0,0.06172839506172839,41.851851851851855,0)" xlink:href="#P"/><use transform="matrix(0.06172839506172839,0,0,0.06172839506172839,46.7283950617284,0)" xlink:href="#an"/><use transform="matrix(0.06172839506172839,0,0,0.06172839506172839,54.074074074074076,0)" xlink:href="#O"/><use transform="matrix(0.06172839506172839,0,0,0.06172839506172839,65.18518518518519,0)" xlink:href="#K"/><use transform="matrix(0.06172839506172839,0,0,0.06172839506172839,71.35802469135803,0)" xlink:href="#V"/><use transform="matrix(0.06172839506172839,0,0,0.06172839506172839,83.70370370370371,0)" xlink:href="#ao"/></g><path d="M24-231v-30h32v30H24zM-9 49c24 4 33-6 33-30v-209h32V24c2 40-23 58-65 49V49" id="ap"/><g id="q"><use transform="matrix(0.06172839506172839,0,0,0.06172839506172839,0,0)" xlink:href="#ao"/><use transform="matrix(0.06172839506172839,0,0,0.06172839506172839,12.345679012345679,0)" xlink:href="#M"/><use transform="matrix(0.06172839506172839,0,0,0.06172839506172839,19.691358024691358,0)" xlink:href="#R"/><use transform="matrix(0.06172839506172839,0,0,0.06172839506172839,32.03703703703704,0)" xlink:href="#ap"/><use transform="matrix(0.06172839506172839,0,0,0.06172839506172839,36.91358024691358,0)" xlink:href="#V"/><use transform="matrix(0.06172839506172839,0,0,0.06172839506172839,49.25925925925926,0)" xlink:href="#Q"/><use transform="matrix(0.06172839506172839,0,0,0.06172839506172839,60.37037037037037,0)" xlink:href="#K"/><use transform="matrix(0.06172839506172839,0,0,0.06172839506172839,66.5432098765432,0)" xlink:href="#O"/></g><path d="M30-248c87 1 191-15 191 75 0 78-77 80-158 76V0H30v-248zm33 125c57 0 124 11 124-50 0-59-68-47-124-48v98" id="aq"/><g id="r"><use transform="matrix(0.06172839506172839,0,0,0.06172839506172839,0,0)" xlink:href="#aq"/><use transform="matrix(0.06172839506172839,0,0,0.06172839506172839,14.814814814814813,0)" xlink:href="#M"/><use transform="matrix(0.06172839506172839,0,0,0.06172839506172839,22.160493827160494,0)" xlink:href="#R"/><use transform="matrix(0.06172839506172839,0,0,0.06172839506172839,34.50617283950617,0)" xlink:href="#ap"/><use transform="matrix(0.06172839506172839,0,0,0.06172839506172839,39.382716049382715,0)" xlink:href="#V"/><use transform="matrix(0.06172839506172839,0,0,0.06172839506172839,51.72839506172839,0)" xlink:href="#Q"/><use transform="matrix(0.06172839506172839,0,0,0.06172839506172839,62.839506172839506,0)" xlink:href="#K"/></g><path d="M177-190C167-65 218 103 67 71c-23-6-38-20-44-43l32-5c15 47 100 32 89-28v-30C133-14 115 1 83 1 29 1 15-40 15-95c0-56 16-97 71-98 29-1 48 16 59 35 1-10 0-23 2-32h30zM94-22c36 0 50-32 50-73 0-42-14-75-50-75-39 0-46 34-46 75s6 73 46 73" id="ar"/><g id="s"><use transform="matrix(0.06172839506172839,0,0,0.06172839506172839,0,0)" xlink:href="#ao"/><use transform="matrix(0.06172839506172839,0,0,0.06172839506172839,12.345679012345679,0)" xlink:href="#U"/><use transform="matrix(0.06172839506172839,0,0,0.06172839506172839,17.22222222222222,0)" xlink:href="#L"/><use transform="matrix(0.06172839506172839,0,0,0.06172839506172839,29.5679012345679,0)" xlink:href="#S"/><use transform="matrix(0.06172839506172839,0,0,0.06172839506172839,41.913580246913575,0)" xlink:href="#S"/><use transform="matrix(0.06172839506172839,0,0,0.06172839506172839,54.25925925925925,0)" xlink:href="#P"/><use transform="matrix(0.06172839506172839,0,0,0.06172839506172839,59.1358024691358,0)" xlink:href="#S"/><use transform="matrix(0.06172839506172839,0,0,0.06172839506172839,71.48148148148148,0)" xlink:href="#ar"/></g><g id="t"><use transform="matrix(0.06172839506172839,0,0,0.06172839506172839,0,0)" xlink:href="#aq"/><use transform="matrix(0.06172839506172839,0,0,0.06172839506172839,14.814814814814813,0)" xlink:href="#M"/><use transform="matrix(0.06172839506172839,0,0,0.06172839506172839,22.160493827160494,0)" xlink:href="#R"/><use transform="matrix(0.06172839506172839,0,0,0.06172839506172839,34.50617283950617,0)" xlink:href="#ap"/><use transform="matrix(0.06172839506172839,0,0,0.06172839506172839,39.382716049382715,0)" xlink:href="#V"/><use transform="matrix(0.06172839506172839,0,0,0.06172839506172839,51.72839506172839,0)" xlink:href="#Q"/><use transform="matrix(0.06172839506172839,0,0,0.06172839506172839,62.839506172839506,0)" xlink:href="#K"/></g><g id="u"><use transform="matrix(0.06172839506172839,0,0,0.06172839506172839,0,0)" xlink:href="#aq"/><use transform="matrix(0.06172839506172839,0,0,0.06172839506172839,14.814814814814813,0)" xlink:href="#U"/><use transform="matrix(0.06172839506172839,0,0,0.06172839506172839,19.691358024691354,0)" xlink:href="#L"/><use transform="matrix(0.06172839506172839,0,0,0.06172839506172839,32.03703703703703,0)" xlink:href="#S"/><use transform="matrix(0.06172839506172839,0,0,0.06172839506172839,44.38271604938271,0)" xlink:href="#O"/></g><path d="M30 0v-248h33v221h125V0H30" id="as"/><g id="v"><use transform="matrix(0.06172839506172839,0,0,0.06172839506172839,0,0)" xlink:href="#as"/><use transform="matrix(0.06172839506172839,0,0,0.06172839506172839,12.345679012345679,0)" xlink:href="#P"/><use transform="matrix(0.06172839506172839,0,0,0.06172839506172839,17.22222222222222,0)" xlink:href="#O"/><use transform="matrix(0.06172839506172839,0,0,0.06172839506172839,28.333333333333332,0)" xlink:href="#K"/></g><path d="M101-234c-31-9-42 10-38 44h38v23H63V0H32v-167H5v-23h27c-7-52 17-82 69-68v24" id="at"/><g id="w"><use transform="matrix(0.06172839506172839,0,0,0.06172839506172839,0,0)" xlink:href="#R"/><use transform="matrix(0.06172839506172839,0,0,0.06172839506172839,12.345679012345679,0)" xlink:href="#at"/></g><g id="x"><use transform="matrix(0.06172839506172839,0,0,0.06172839506172839,0,0)" xlink:href="#L"/><use transform="matrix(0.06172839506172839,0,0,0.06172839506172839,12.345679012345679,0)" xlink:href="#Q"/><use transform="matrix(0.06172839506172839,0,0,0.06172839506172839,23.45679012345679,0)" xlink:href="#K"/><use transform="matrix(0.06172839506172839,0,0,0.06172839506172839,29.62962962962963,0)" xlink:href="#P"/><use transform="matrix(0.06172839506172839,0,0,0.06172839506172839,34.50617283950617,0)" xlink:href="#R"/><use transform="matrix(0.06172839506172839,0,0,0.06172839506172839,46.85185185185185,0)" xlink:href="#S"/><use transform="matrix(0.06172839506172839,0,0,0.06172839506172839,59.197530864197525,0)" xlink:href="#O"/></g><g id="y"><use transform="matrix(0.06172839506172839,0,0,0.06172839506172839,0,0)" xlink:href="#ak"/><use transform="matrix(0.06172839506172839,0,0,0.06172839506172839,15.987654320987653,0)" xlink:href="#R"/></g><g id="z"><use transform="matrix(0.06172839506172839,0,0,0.06172839506172839,0,0)" xlink:href="#P"/><use transform="matrix(0.06172839506172839,0,0,0.06172839506172839,4.876543209876543,0)" xlink:href="#K"/></g><g id="A"><use transform="matrix(0.06172839506172839,0,0,0.06172839506172839,0,0)" xlink:href="#ak"/><use transform="matrix(0.06172839506172839,0,0,0.06172839506172839,15.987654320987653,0)" xlink:href="#V"/><use transform="matrix(0.06172839506172839,0,0,0.06172839506172839,28.333333333333332,0)" xlink:href="#at"/><use transform="matrix(0.06172839506172839,0,0,0.06172839506172839,34.50617283950617,0)" xlink:href="#V"/><use transform="matrix(0.06172839506172839,0,0,0.06172839506172839,46.85185185185185,0)" xlink:href="#M"/></g><g id="B"><use transform="matrix(0.06172839506172839,0,0,0.06172839506172839,0,0)" xlink:href="#ak"/><use transform="matrix(0.06172839506172839,0,0,0.06172839506172839,15.987654320987653,0)" xlink:href="#V"/><use transform="matrix(0.06172839506172839,0,0,0.06172839506172839,28.333333333333332,0)" xlink:href="#U"/><use transform="matrix(0.06172839506172839,0,0,0.06172839506172839,33.20987654320987,0)" xlink:href="#V"/><use transform="matrix(0.06172839506172839,0,0,0.06172839506172839,45.55555555555555,0)" xlink:href="#ar"/><use transform="matrix(0.06172839506172839,0,0,0.06172839506172839,57.90123456790123,0)" xlink:href="#L"/><use transform="matrix(0.06172839506172839,0,0,0.06172839506172839,70.24691358024691,0)" xlink:href="#K"/><use transform="matrix(0.06172839506172839,0,0,0.06172839506172839,76.41975308641975,0)" xlink:href="#V"/></g><g id="C"><use transform="matrix(0.06172839506172839,0,0,0.06172839506172839,0,0)" xlink:href="#as"/><use transform="matrix(0.06172839506172839,0,0,0.06172839506172839,12.345679012345679,0)" xlink:href="#L"/><use transform="matrix(0.06172839506172839,0,0,0.06172839506172839,24.691358024691358,0)" xlink:href="#K"/><use transform="matrix(0.06172839506172839,0,0,0.06172839506172839,30.864197530864196,0)" xlink:href="#V"/><use transform="matrix(0.06172839506172839,0,0,0.06172839506172839,43.20987654320987,0)" xlink:href="#M"/></g><path d="M190 0L58-211 59 0H30v-248h39L202-35l-2-213h31V0h-41" id="au"/><g id="D"><use transform="matrix(0.06172839506172839,0,0,0.06172839506172839,0,0)" xlink:href="#au"/><use transform="matrix(0.06172839506172839,0,0,0.06172839506172839,15.987654320987653,0)" xlink:href="#V"/><use transform="matrix(0.06172839506172839,0,0,0.06172839506172839,28.333333333333332,0)" xlink:href="#ad"/><use transform="matrix(0.06172839506172839,0,0,0.06172839506172839,39.44444444444444,0)" xlink:href="#K"/></g><g id="E"><use transform="matrix(0.06172839506172839,0,0,0.06172839506172839,0,0)" xlink:href="#J"/><use transform="matrix(0.06172839506172839,0,0,0.06172839506172839,14.814814814814813,0)" xlink:href="#Q"/><use transform="matrix(0.06172839506172839,0,0,0.06172839506172839,25.925925925925924,0)" xlink:href="#ac"/><use transform="matrix(0.06172839506172839,0,0,0.06172839506172839,38.2716049382716,0)" xlink:href="#V"/><use transform="matrix(0.06172839506172839,0,0,0.06172839506172839,50.61728395061728,0)" xlink:href="#ag"/><use transform="matrix(0.06172839506172839,0,0,0.06172839506172839,62.962962962962955,0)" xlink:href="#aj"/><use transform="matrix(0.06172839506172839,0,0,0.06172839506172839,75.30864197530863,0)" xlink:href="#U"/><use transform="matrix(0.06172839506172839,0,0,0.06172839506172839,80.18518518518518,0)" xlink:href="#V"/><use transform="matrix(0.06172839506172839,0,0,0.06172839506172839,92.53086419753086,0)" xlink:href="#ag"/></g><g id="F"><use transform="matrix(0.06172839506172839,0,0,0.06172839506172839,0,0)" xlink:href="#ab"/><use transform="matrix(0.06172839506172839,0,0,0.06172839506172839,20.123456790123456,0)" xlink:href="#L"/><use transform="matrix(0.06172839506172839,0,0,0.06172839506172839,32.46913580246913,0)" xlink:href="#P"/><use transform="matrix(0.06172839506172839,0,0,0.06172839506172839,37.34567901234568,0)" xlink:href="#K"/></g><g id="G"><use transform="matrix(0.06172839506172839,0,0,0.06172839506172839,0,0)" xlink:href="#at"/><use transform="matrix(0.06172839506172839,0,0,0.06172839506172839,6.172839506172839,0)" xlink:href="#R"/><use transform="matrix(0.06172839506172839,0,0,0.06172839506172839,18.51851851851852,0)" xlink:href="#M"/></g><g id="H"><use transform="matrix(0.06172839506172839,0,0,0.06172839506172839,0,0)" xlink:href="#O"/><use transform="matrix(0.06172839506172839,0,0,0.06172839506172839,11.11111111111111,0)" xlink:href="#R"/><use transform="matrix(0.06172839506172839,0,0,0.06172839506172839,23.45679012345679,0)" xlink:href="#af"/><use transform="matrix(0.06172839506172839,0,0,0.06172839506172839,41.91358024691358,0)" xlink:href="#V"/><use transform="matrix(0.06172839506172839,0,0,0.06172839506172839,54.25925925925926,0)" xlink:href="#R"/><use transform="matrix(0.06172839506172839,0,0,0.06172839506172839,66.60493827160494,0)" xlink:href="#S"/><use transform="matrix(0.06172839506172839,0,0,0.06172839506172839,78.95061728395062,0)" xlink:href="#V"/></g><g id="I"><use transform="matrix(0.06172839506172839,0,0,0.06172839506172839,0,0)" xlink:href="#V"/><use transform="matrix(0.06172839506172839,0,0,0.06172839506172839,12.345679012345679,0)" xlink:href="#U"/><use transform="matrix(0.06172839506172839,0,0,0.06172839506172839,17.22222222222222,0)" xlink:href="#O"/><use transform="matrix(0.06172839506172839,0,0,0.06172839506172839,28.333333333333332,0)" xlink:href="#V"/></g></defs></g></svg>